<?xml version="1.0" standalone="no"?>
<!DOCTYPE svg PUBLIC "-//W3C//DTD SVG 20010904//EN"
 "http://www.w3.org/TR/2001/REC-SVG-20010904/DTD/svg10.dtd">
<svg version="1.0" xmlns="http://www.w3.org/2000/svg"
 width="300.000000pt" height="189.000000pt" viewBox="0 0 300.000000 189.000000"
 preserveAspectRatio="xMidYMid meet">
<metadata>
Created by potrace 1.10, written by Peter Selinger 2001-2011
</metadata>
<g transform="translate(0.000000,189.000000) scale(0.100000,-0.100000)"
fill="#000000" stroke="none">
<path d="M1176 1423 c-3 -4 17 -31 46 -60 29 -29 49 -53 45 -53 -4 0 -35 14
-68 30 l-60 31 -18 -43 c-21 -49 -24 -44 65 -84 l55 -24 20 44 c11 25 24 48
30 52 7 4 -11 28 -42 60 -55 55 -61 59 -73 47z m42 -115 c23 -7 42 -16 42 -21
0 -4 -5 -5 -12 -1 -7 5 -9 2 -6 -7 8 -21 -31 -22 -76 -4 -32 14 -35 17 -24 35
7 11 17 18 23 15 5 -2 29 -10 53 -17z"/>
<path d="M775 1201 c-3 -2 -5 -11 -5 -20 0 -14 2 -14 10 -1 5 8 12 12 15 8 4
-3 0 -12 -7 -19 -10 -8 -13 -32 -12 -73 2 -50 1 -55 -5 -26 -6 27 -9 11 -10
-62 l-1 -98 40 0 c46 0 49 4 18 31 -14 11 -17 18 -9 17 17 -3 27 50 33 169 l4
71 -34 4 c-18 2 -35 2 -37 -1z"/>
<path d="M1535 1201 c-3 -2 -5 -11 -5 -20 0 -14 2 -14 10 -1 5 8 12 12 15 8 3
-3 -1 -13 -11 -22 -13 -14 -14 -19 -2 -33 10 -13 10 -15 0 -9 -10 6 -11 1 -7
-21 5 -21 4 -24 -4 -13 -8 11 -11 -11 -11 -82 l0 -98 40 0 40 0 -2 55 c-2 44
-6 54 -18 50 -12 -4 -12 -3 1 8 12 9 17 35 21 94 l5 81 -34 4 c-18 2 -36 2
-38 -1z"/>
<path d="M585 1167 c-51 -51 -68 -136 -41 -202 25 -60 92 -74 145 -30 36 31
47 61 31 80 -17 21 -23 19 -43 -15 -23 -37 -54 -40 -63 -5 -7 29 2 98 17 126
12 23 51 46 45 27 -3 -7 -7 -25 -10 -40 -6 -27 -5 -28 34 -28 l40 0 0 40 c0
54 -27 80 -81 80 -33 0 -47 -6 -74 -33z"/>
<path d="M866 1123 c-4 -43 -9 -108 -12 -145 l-6 -68 36 0 36 0 -1 78 c0 42
-3 71 -6 65 -2 -7 -9 -13 -14 -13 -6 0 -6 7 -1 18 5 9 8 23 6 30 -1 7 0 8 3 2
2 -5 8 -8 12 -6 4 3 20 -35 36 -85 l29 -90 34 3 34 3 5 129 c2 72 5 135 6 140
1 6 -13 12 -30 14 l-33 3 0 -60 c0 -34 -4 -61 -10 -61 -5 0 -10 6 -10 14 0 8
-9 35 -20 60 -18 42 -22 46 -54 46 l-34 0 -6 -77z"/>
<path d="M1097 1193 c-3 -5 -8 -70 -12 -145 l-7 -138 34 0 c19 0 63 3 97 6
l61 7 0 35 0 35 -60 -6 c-55 -6 -60 -5 -60 13 0 16 9 21 50 26 47 6 50 8 50
36 0 30 0 30 -50 26 -39 -2 -49 0 -45 10 3 8 5 18 5 22 0 5 26 10 58 12 56 3
57 3 60 36 l3 32 -90 0 c-49 0 -92 -3 -94 -7z"/>
<path d="M1307 1193 c-4 -3 -7 -21 -7 -40 0 -29 3 -33 26 -33 14 0 22 4 19 10
-3 5 0 7 8 4 11 -4 13 -27 9 -114 l-5 -110 35 0 35 0 7 77 c3 42 6 94 6 116 0
38 1 39 29 34 26 -6 29 -3 33 24 3 16 2 31 0 34 -8 8 -188 6 -195 -2z"/>
<path d="M1672 1184 c-36 -25 -55 -73 -56 -140 0 -99 49 -151 115 -123 25 10
34 10 37 1 6 -19 26 -14 40 9 9 14 10 24 3 33 -7 9 -7 29 0 67 16 74 0 133
-41 154 -37 19 -70 19 -98 -1z m78 -100 c0 -31 -4 -44 -14 -44 -7 0 -19 -7
-27 -16 -10 -13 -10 -20 0 -36 11 -17 10 -19 -6 -16 -15 3 -18 13 -15 68 2 74
24 119 48 99 8 -7 14 -29 14 -55z"/>
<path d="M1855 1178 c-3 -13 -7 -69 -8 -124 -2 -88 1 -105 17 -123 23 -25 83
-28 126 -6 36 19 47 54 54 178 l5 97 -33 0 -33 0 -7 -102 c-5 -79 -11 -106
-23 -116 -14 -10 -20 -10 -31 1 -10 11 -11 34 -5 111 5 53 7 99 4 101 -2 3
-17 5 -32 5 -21 0 -30 -6 -34 -22z"/>
<path d="M2076 1188 c-3 -7 -7 -73 -11 -145 l-6 -133 33 0 c18 0 64 3 101 7
l68 6 -3 31 -3 31 -62 -2 c-54 -1 -63 1 -63 16 0 9 -5 22 -11 28 -6 6 -8 16
-4 22 9 16 28 2 21 -16 -5 -12 2 -13 42 -7 60 8 62 10 60 40 -2 24 -5 25 -53
22 -48 -3 -51 -2 -47 19 4 20 11 22 66 25 61 3 61 3 64 36 l3 32 -96 0 c-68 0
-97 -4 -99 -12z"/>
</g>
</svg>
